<?xml version="1.0" encoding="UTF-8"?>
<svg width="24px" height="19px" viewBox="0 0 24 19" version="1.1" xmlns="http://www.w3.org/2000/svg" xmlns:xlink="http://www.w3.org/1999/xlink">
    <!-- Generator: Sketch 52.2 (67145) - http://www.bohemiancoding.com/sketch -->
    <title>icon newsletter</title>
    <desc>Created with Sketch.</desc>
    <g id="Page-1" stroke="none" stroke-width="1" fill="none" fill-rule="evenodd">
        <g id="our-product" transform="translate(-736.000000, -3401.000000)">
            <g id="Group-2" transform="translate(0.000000, 3218.000000)">
                <g id="icon-newsletter" transform="translate(728.000000, 172.000000)">
                    <rect id="Rectangle-Copy-13" x="0" y="0" width="40" height="40"></rect>
                    <g id="邮件" transform="translate(8.000000, 11.000000)" fill="#2F2F2F" fill-rule="nonzero">
                        <path d="M23.9997864,15.0238398 C23.9997864,15.5500779 23.8519956,16.0370189 23.614505,16.466723 L16.0370189,7.98882314 L23.5324939,1.43135039 C23.8238042,1.89437152 23.9997864,2.43769522 23.9997864,3.02458732 L23.9997864,15.0238398 Z M11.9996796,9.52738598 L22.4296151,0.401939933 C22.0016196,0.167866518 21.5198042,0.0243470523 20.9995462,0.0243470523 L2.99981313,0.0243470523 C2.47870078,0.0243470523 1.99688543,0.167866518 1.57059844,0.401939933 L11.9996796,9.52738598 Z M14.9076574,8.97551947 L12.4934549,11.0890145 C12.3524983,11.2120311 12.1765161,11.2735395 11.9996796,11.2735395 C11.8228432,11.2735395 11.646861,11.2120311 11.5059043,11.0890145 L9.09084761,8.97551947 L1.41768187,17.5619132 C1.87728587,17.8506607 2.41633815,18.0232258 2.99981313,18.0232258 L20.9995462,18.0232258 C21.5821669,18.0232258 22.1220734,17.8506607 22.5816774,17.5619132 L14.9076574,8.97551947 Z M0.466865406,1.43049611 C0.175555061,1.89266296 0.000427141268,2.43684093 0.000427141268,3.02373304 L0.000427141268,15.0229855 C0.000427141268,15.5492236 0.147363737,16.0361646 0.385708565,16.4658687 L7.96234038,7.98626029 L0.466865406,1.43049611 Z" id="Shape"></path>
                    </g>
                </g>
            </g>
        </g>
    </g>
</svg>