<?xml version="1.0" encoding="UTF-8"?>
<svg width="18px" height="16px" viewBox="0 0 18 16" version="1.1" xmlns="http://www.w3.org/2000/svg" xmlns:xlink="http://www.w3.org/1999/xlink">
    <!-- Generator: Sketch 52.2 (67145) - http://www.bohemiancoding.com/sketch -->
    <title>icon wechat</title>
    <desc>Created with Sketch.</desc>
    <g id="Page-1" stroke="none" stroke-width="1" fill="none" fill-rule="evenodd">
        <g id="contact-us" transform="translate(-1183.000000, -74.000000)">
            <g id="Group-4" transform="translate(193.000000, 62.000000)">
                <g id="Group-3">
                    <g id="icon-wechat" transform="translate(987.000000, 8.000000)">
                        <rect id="Rectangle-Copy-12" x="0" y="0" width="24" height="24"></rect>
                        <g id="微信" transform="translate(3.600000, 4.800000)" fill="#2F2F2F" fill-rule="nonzero">
                            <path d="M11.6175119,4.63981179 C11.8002477,4.63981179 11.9781883,4.64786107 12.1597253,4.66515846 C11.7498969,2.03047426 9.19776066,0 6.10906269,0 C2.73470082,0 0,2.42334773 0,5.41185785 C0,7.08285458 0.856135352,8.57693837 2.19848162,9.57076783 C2.0272203,10.4399191 1.81382868,11.5827459 1.84448447,11.5445546 C1.89141006,11.5274285 3.07157185,10.8639621 3.8134759,10.4294721 C4.55028625,10.6918852 5.32674734,10.825592 6.10889143,10.8247432 C6.19452209,10.8247432 6.27792636,10.8223456 6.36355702,10.8201192 C6.26750809,10.4424188 6.21917824,10.0541691 6.21969751,9.66444778 C6.21849867,6.88984306 8.63499596,4.63946927 11.6175119,4.63946927 L11.6175119,4.63981179 Z M8.50826258,2.87290871 C8.930593,2.87290871 9.27191682,3.21834279 9.27191682,3.64478349 C9.27191682,4.07242302 8.92939417,4.41905594 8.50826258,4.41905594 C8.08695973,4.41905594 7.74460834,4.07139545 7.74460834,3.64495476 C7.74460834,3.21851406 8.08713098,2.87290871 8.50843385,2.87290871 L8.50826258,2.87290871 Z M3.81809996,4.41905594 C3.39576953,4.41905594 3.05564454,4.07139545 3.05564454,3.64495476 C3.05564454,3.21851406 3.39696836,2.87290871 3.81809996,2.87290871 C4.23940281,2.87290871 4.58175419,3.21834279 4.58175421,3.64478349 C4.58175421,4.07242302 4.23923157,4.41905594 3.81809996,4.41905594 Z M17.1261324,9.49815304 C17.1261324,6.99739519 14.7827637,4.97051742 11.89153,4.9705174 C8.99909753,4.9705174 6.65453001,6.998594 6.65453001,9.49815304 C6.65453001,11.9989109 8.99909753,14.0281863 11.89153,14.0281863 C12.677962,14.0281863 13.4232913,13.8767913 14.0944645,13.6075685 C14.7849901,13.9809182 15.5371698,14.3737917 15.5748473,14.3852662 C15.6012216,14.4142093 15.452738,13.6827522 15.2919236,12.9442734 C16.4126577,12.109717 17.1261324,10.8778343 17.1261324,9.49798177 L17.1261324,9.49815304 Z M9.92716264,8.50432357 C9.50483222,8.50432357 9.16230956,8.15888948 9.16230958,7.73244878 C9.16230958,7.30600808 9.50483222,6.95817633 9.92716264,6.95817633 C10.3482942,6.95817633 10.6896181,7.30583682 10.6896181,7.73227753 C10.6896181,8.15871823 10.3482942,8.50432358 9.92716264,8.50432357 Z M13.7440638,8.50432357 C13.3227609,8.50432357 12.9792107,8.15888948 12.9792107,7.73244878 C12.9792107,7.30600808 13.3229322,6.95817633 13.7440638,6.95817633 C14.1653666,6.95817633 14.5087456,7.30583682 14.5087456,7.73227753 C14.5087456,8.15871823 14.1651954,8.50432358 13.7440638,8.50432357 Z" id="Shape"></path>
                        </g>
                    </g>
                </g>
            </g>
        </g>
    </g>
</svg>