<?xml version="1.0" encoding="UTF-8"?>
<svg width="24px" height="40px" viewBox="0 0 24 40" version="1.1" xmlns="http://www.w3.org/2000/svg" xmlns:xlink="http://www.w3.org/1999/xlink">
    <!-- Generator: Sketch 52.2 (67145) - http://www.bohemiancoding.com/sketch -->
    <title>icon diamond</title>
    <desc>Created with Sketch.</desc>
    <g id="Page-1" stroke="none" stroke-width="1" fill="none" fill-rule="evenodd">
        <g id="contact-us" transform="translate(-265.000000, -62.000000)" fill="#4F443C">
            <g id="Group-4" transform="translate(193.000000, 62.000000)">
                <g id="Group-3">
                    <g id="icon-diamond" transform="translate(72.000000, 0.000000)">
                        <path d="M11.911801,0 L0,8.45058041 L0.00283720464,31.5458233 L11.911801,40 L23.8187382,31.5446245 L23.8195489,8.45537552 L11.911801,0 Z M1.02868934,8.70512078 L11.5064861,1.27110347 L11.5064861,8.15128569 L5.0867026,12.7062396 L1.02868934,8.70512078 Z M12.317116,8.15168528 L12.317116,1.27150307 L22.7908595,8.70951629 L18.7348728,12.707838 L12.317116,8.15168528 Z M5.45027011,26.5649038 L5.44905416,13.4330982 L11.911801,8.84737568 L18.3725213,13.4346966 L18.3713053,26.563705 L11.911801,31.1526243 L5.45027011,26.5649038 Z M0.810629896,9.62018741 L4.63842427,13.3943378 L4.64004553,26.6036643 L0.813061786,30.3766159 L0.810629896,9.62018741 Z M19.1823406,26.6028651 L19.1831512,13.3955366 L23.008919,9.62458293 L23.0081083,30.3754171 L19.1823406,26.6028651 Z M12.317116,31.8479151 L18.7340622,27.2909632 L22.7900489,31.2900841 L12.317116,38.7284969 L12.317116,31.8479151 Z M1.03152654,31.2920821 L5.08791854,27.2917624 L11.5064861,31.8483147 L11.5064861,38.7288965 L1.03152654,31.2920821 Z" id="Fill-1"></path>
                        <polygon id="Fill-2" points="15.3422583 17.6454674 16.0240602 16 7.79548872 16 11.5219243 19.9538709 7.97788422 24 15.9920682 24 15.3497369 22.181305 14.5607414 22.4246022 14.8416055 23.2214491 9.73411605 23.2214491 12.612558 19.9355749 9.63772481 16.7785509 14.8100291 16.7785509 14.56822 17.3624641"></polygon>
                    </g>
                </g>
            </g>
        </g>
    </g>
</svg>