<?xml version="1.0" encoding="UTF-8"?>
<svg width="18px" height="16px" viewBox="0 0 18 16" version="1.1" xmlns="http://www.w3.org/2000/svg" xmlns:xlink="http://www.w3.org/1999/xlink">
    <!-- Generator: Sketch 52.2 (67145) - http://www.bohemiancoding.com/sketch -->
    <title>icon weibo</title>
    <desc>Created with Sketch.</desc>
    <g id="Page-1" stroke="none" stroke-width="1" fill="none" fill-rule="evenodd">
        <g id="contact-us" transform="translate(-1145.000000, -74.000000)">
            <g id="Group-4" transform="translate(193.000000, 62.000000)">
                <g id="Group-3">
                    <g id="icon-weibo" transform="translate(949.000000, 8.000000)">
                        <rect id="Rectangle" x="0" y="0" width="24" height="24"></rect>
                        <g id="微博" transform="translate(3.000000, 4.800000)" fill="#2F2F2F" fill-rule="nonzero">
                            <path d="M13.2448119,7.01200581 C12.5487733,6.8752581 12.8873867,6.49829747 12.8873867,6.49829747 C12.8873867,6.49829747 13.5667841,5.36813912 12.7528096,4.54620577 C11.7420342,3.52819501 9.28491651,4.67571816 9.28491651,4.67571816 C8.3472179,4.9694725 8.59611321,4.54041751 8.72996679,3.8161611 C8.72996679,2.96022171 8.43838304,1.51098536 5.94074756,2.36764828 C3.44455914,3.22720534 1.30145476,6.24216683 1.30145476,6.24216683 C-0.189746497,8.24635289 0.00922504416,9.79471325 0.00922504416,9.79471325 C0.381844475,13.211959 3.98720879,14.1511047 6.79089868,14.3725058 C9.74146575,14.6047598 13.7230672,13.3487067 14.9306435,10.7642473 C16.1360493,8.17544667 13.9422976,7.15164765 13.2448119,7.01200581 Z M7.00868208,13.4080364 C4.079821,13.5447841 1.71242143,12.0651594 1.71242143,10.09715 C1.71242143,8.1255229 4.079821,6.54460357 7.00868208,6.41002646 C9.93971376,6.27327874 12.3129016,7.49170811 12.3129016,9.45754693 C12.310731,11.4255563 9.93899023,13.2727358 7.00868208,13.4080364 Z M6.42406752,7.7073209 C3.47856518,8.05534022 3.81862563,10.83443 3.81862563,10.83443 C3.81862563,10.83443 3.78823725,11.7135224 4.608,12.1621128 C6.33145531,13.1034291 8.10628145,12.5340087 9.00273868,11.3676737 C9.90064298,10.1998917 9.37463458,7.36291925 6.42406752,7.7073209 Z M5.67955219,11.6100572 C5.13039074,11.6751752 4.68614155,11.3539266 4.68614155,10.8908656 C4.68614155,10.4292516 5.07974343,9.94593162 5.63107549,9.88877252 C6.26271969,9.82727223 6.67440989,10.1948269 6.67440989,10.657888 C6.67440989,11.1195019 6.22871364,11.5463863 5.67955219,11.6100572 Z M7.41675462,10.118856 C7.23080667,10.2592214 7.00217028,10.239686 6.90376981,10.0725499 C6.80175168,9.90758438 6.83937539,9.64494194 7.0267704,9.50674716 C7.24527733,9.34178167 7.47246665,9.3909819 7.57086712,9.55305327 C7.67071466,9.72235996 7.59908491,9.97487293 7.41675462,10.118856 Z M14.6795776,5.80804711 C14.9154493,5.80804711 15.1194856,5.63150508 15.1520446,5.4006981 C15.1549387,5.38333331 15.1592799,5.36886265 15.1592799,5.34860373 C15.5188758,2.08981166 12.5075319,2.65054964 12.5075319,2.65054964 C12.2405483,2.65054964 12.0263826,2.86833303 12.0263826,3.14038139 C12.0263826,3.40736502 12.2405483,3.62514842 12.5075319,3.62514842 C14.6701717,3.14544612 14.19264,5.32255655 14.19264,5.32255655 C14.19264,5.59098724 14.4111469,5.80804711 14.6795776,5.80804711 Z M14.3293877,0.121078705 C13.2882239,-0.12419894 12.2173953,0.0870726595 11.9171291,0.146402355 C11.8939761,0.146402355 11.8722701,0.167384809 11.8512876,0.173173072 C11.8397111,0.17534367 11.8353699,0.186196663 11.8353699,0.186196663 C11.5387214,0.269402944 11.3216616,0.546516035 11.3216616,0.870658763 C11.3216616,1.25847238 11.6349513,1.57899745 12.0249355,1.57899745 C12.0249355,1.57899745 12.4033432,1.52835015 12.6601974,1.42560848 C12.9141574,1.32286681 15.0702854,1.34819046 16.1425611,3.15919325 C16.7264521,4.48181134 16.3986917,5.36669205 16.3588974,5.50922803 C16.3588974,5.50922803 16.2192556,5.85218261 16.2192556,6.190796 C16.2192556,6.58005668 16.5318218,6.82533433 16.9196354,6.82533433 C17.2437781,6.82533433 17.5158265,6.78192236 17.5946916,6.22986677 L17.5983092,6.22986677 C18.7465559,2.37198948 16.1924849,0.557369028 14.3293877,0.121078705 Z" id="Shape"></path>
                        </g>
                    </g>
                </g>
            </g>
        </g>
    </g>
</svg>