<?xml version="1.0" encoding="UTF-8"?>
<svg width="16px" height="16px" viewBox="0 0 16 16" version="1.1" xmlns="http://www.w3.org/2000/svg" xmlns:xlink="http://www.w3.org/1999/xlink">
    <!-- Generator: Sketch 52.2 (67145) - http://www.bohemiancoding.com/sketch -->
    <title>icon ins</title>
    <desc>Created with Sketch.</desc>
    <g id="Page-1" stroke="none" stroke-width="1" fill="none" fill-rule="evenodd">
        <g id="contact-us" transform="translate(-1108.000000, -74.000000)">
            <g id="Group-4" transform="translate(193.000000, 62.000000)">
                <g id="Group-3">
                    <g id="icon-ins" transform="translate(911.000000, 8.000000)">
                        <rect id="Rectangle-Copy-14" x="0" y="0" width="24" height="24"></rect>
                        <g id="ins" transform="translate(4.800000, 4.800000)" fill="#2F2F2F" fill-rule="nonzero">
                            <path d="M10.98,2.52 C11.4770563,2.52 11.88,2.92294373 11.88,3.42 C11.88,3.91705627 11.4770563,4.32 10.98,4.32 C10.4829437,4.32 10.08,3.91705627 10.08,3.42 C10.08,2.92294373 10.4829437,2.52 10.98,2.52 Z M7.2,3.6 C9.1882251,3.6 10.8,5.2117749 10.8,7.2 C10.8,9.1882251 9.1882251,10.8 7.2,10.8 C5.2117749,10.8 3.6,9.1882251 3.6,7.2 C3.6,5.2117749 5.2117749,3.6 7.2,3.6 Z M7.2,5.04 C6.42830631,5.03999998 5.71523194,5.45169365 5.32938509,6.11999999 C4.94353824,6.78830632 4.94353824,7.61169368 5.32938509,8.28000001 C5.71523194,8.94830635 6.42830631,9.36000002 7.2,9.36 C8.39293506,9.36 9.36,8.39293506 9.36,7.2 C9.36,6.00706494 8.39293506,5.04 7.2,5.04 Z" id="Shape"></path>
                            <path d="M10.224,1.8 L4.176,1.8 C2.86377143,1.8 1.8,2.86377143 1.8,4.176 L1.8,10.224 C1.80148793,11.5356117 2.86438825,12.5985121 4.176,12.6 L10.224,12.6 C11.5362286,12.6 12.6,11.5362286 12.6,10.224 L12.6,4.176 C12.5985121,2.86438825 11.5356117,1.80148793 10.224,1.8 Z M10.224,0 C12.528,0 14.4,1.872 14.4,4.176 L14.4,10.224 C14.4,12.5303411 12.5303411,14.4 10.224,14.4 L4.176,14.4 C1.872,14.4 0,12.528 0,10.224 L0,4.176 C-2.82445326e-16,1.86965888 1.86965888,4.2366799e-16 4.176,0 L10.224,0 Z" id="Shape"></path>
                        </g>
                    </g>
                </g>
            </g>
        </g>
    </g>
</svg>