<?xml version="1.0" encoding="UTF-8"?>
<svg width="114px" height="35px" viewBox="0 0 114 35" version="1.1" xmlns="http://www.w3.org/2000/svg" xmlns:xlink="http://www.w3.org/1999/xlink">
    <!-- Generator: Sketch 52.2 (67145) - http://www.bohemiancoding.com/sketch -->
    <title>logo eclavour</title>
    <desc>Created with Sketch.</desc>
    <defs>
        <polygon id="path-1" points="0.521805988 0.0184579537 4.4059976 0.0184579537 4.4059976 4.76773712 0.521805988 4.76773712"></polygon>
        <polygon id="path-3" points="0.134615569 0.0184579537 4.01880719 0.0184579537 4.01880719 4.76773712 0.134615569 4.76773712"></polygon>
        <polygon id="path-5" points="0.0723592814 0.0184579537 3.9565509 0.0184579537 3.9565509 4.76773712 0.0723592814 4.76773712"></polygon>
        <polygon id="path-7" points="0.236191617 0.0185260642 3.68417964 0.0185260642 3.68417964 4.76773712 0.236191617 4.76773712"></polygon>
    </defs>
    <g id="Page-1" stroke="none" stroke-width="1" fill="none" fill-rule="evenodd">
        <g id="contact-us" transform="translate(-663.000000, -64.000000)">
            <g id="Group-4" transform="translate(193.000000, 62.000000)">
                <g id="Group-3">
                    <g id="logo-eclavour" transform="translate(470.000000, 2.000000)">
                        <path d="M24.816776,18.2340063 C23.9866922,18.7666306 23.0139377,19.0322617 21.903291,19.0322617 C20.6677222,19.0322617 19.6389916,18.7094178 18.8164168,18.0630488 C17.991794,17.417361 17.3876623,16.576196 16.9985605,15.5422781 C16.6094587,14.5083603 16.4142251,13.3906665 16.4142251,12.1891967 C16.4142251,9.63505183 16.9186922,7.77835878 17.9235305,6.62388529 C18.9297341,5.46736848 20.2560934,4.88979119 21.903291,4.88979119 C23.1832311,4.88979119 24.2119617,5.24260373 24.9881174,5.95027214 C25.7656383,6.65725945 26.2994587,7.74907125 26.5902611,9.22298312 L27.0455784,9.22298312 C27.0455784,8.31166423 27.0162251,7.59309813 26.954788,7.06728484 C26.8933509,6.54419597 26.7329317,6.12054847 26.4748958,5.80111008 C26.0318659,5.27052905 25.3505964,4.83257834 24.4276743,4.49066348 C23.5068,4.14738641 22.4350635,3.97642898 21.2165605,3.97642898 C19.9366204,3.97642898 18.7508838,4.34218252 17.6607162,5.0716463 C16.5705485,5.80111008 15.7090635,6.79824824 15.078309,8.06101748 C14.4455066,9.3231056 14.1294467,10.6989383 14.1294467,12.1891967 C14.1294467,13.6338211 14.4175186,14.946311 14.9984407,16.1253043 C15.577315,17.3022542 16.403303,18.2340063 17.4784527,18.9191982 C18.5522371,19.6023468 19.7987281,19.9456239 21.2165605,19.9456239 C22.6494108,19.9456239 23.8808838,19.6595597 24.9082491,19.0901556 C25.9369796,18.5200705 26.8018778,17.5508577 27.5036263,16.1804738 L27.0455784,15.83924 C26.3909317,16.9031265 25.6482251,17.7027441 24.816776,18.2340063" id="Fill-1" fill="#222222"></path>
                        <path d="M80.9103737,15.7129631 C80.5287808,16.7714007 79.9765293,17.588046 79.2522539,18.1656233 C78.5286611,18.7445628 77.6712719,19.0319892 76.6814515,19.0319892 C75.6895832,19.0319892 74.8315114,18.7445628 74.1079186,18.1656233 C73.3843257,17.588046 72.8313916,16.7714007 72.4504814,15.7129631 C72.0688886,14.6565688 71.8791162,13.4053783 71.8791162,11.9614351 C71.8791162,10.5168108 72.0688886,9.26562031 72.4504814,8.20922599 C72.8313916,7.15078835 73.3843257,6.33414309 74.1079186,5.7565658 C74.8315114,5.17762629 75.6895832,4.89019985 76.6814515,4.89019985 C77.6712719,4.89019985 78.5286611,5.17762629 79.2522539,5.7565658 C79.9765293,6.33414309 80.5287808,7.15078835 80.9103737,8.20922599 C81.2899186,9.26562031 81.4817389,10.5168108 81.4817389,11.9614351 C81.4817389,13.4053783 81.2899186,14.6565688 80.9103737,15.7129631 M80.4188766,5.02573981 C79.3437269,4.32760687 78.0972359,3.97683764 76.6814515,3.97683764 C75.2636192,3.97683764 74.0171281,4.32760687 72.9412958,5.02573981 C71.8675114,5.72523495 71.0401581,6.68355011 70.4612838,7.90136639 C69.8824096,9.11713936 69.5922898,10.4704956 69.5922898,11.9614351 C69.5922898,13.4516935 69.8824096,14.8050497 70.4612838,16.0208227 C71.0401581,17.238639 71.8675114,18.1969541 72.9412958,18.8964493 C74.0171281,19.5945822 75.2636192,19.9453515 76.6814515,19.9453515 C78.0972359,19.9453515 79.3437269,19.5945822 80.4188766,18.8964493 C81.4926611,18.1969541 82.3186491,17.238639 82.8995713,16.0208227 C83.4777629,14.8050497 83.7685653,13.4516935 83.7685653,11.9614351 C83.7685653,10.4704956 83.4777629,9.11713936 82.8995713,7.90136639 C82.3186491,6.68355011 81.4926611,5.72523495 80.4188766,5.02573981" id="Fill-3" fill="#222222"></path>
                        <path d="M44.7885521,14.242593 L47.6467437,7.62633607 L50.3465641,14.242593 L44.7885521,14.242593 Z M53.7044443,16.6373592 L48.6754743,4.43331441 L47.9887437,4.43331441 L41.5863126,19.4891471 L42.6150431,19.4891471 L44.4445042,15.1539119 L50.7186,15.1539119 L52.4879892,19.4891471 L52.7016539,19.4891471 L56.2199533,19.4891471 L56.2199533,19.0321255 C55.5946599,18.9728693 55.1147677,18.7780732 54.7802766,18.4511426 C54.4430551,18.1242121 54.0860371,17.5193906 53.7044443,16.6373592 Z" id="Fill-5" fill="#222222"></path>
                        <path d="M32.849612,4.43311008 L32.7902228,4.43311008 L31.9171329,4.43311008 L30.7505102,4.43311008 L28.6923665,4.43311008 L28.6923665,4.89013174 L29.1483665,4.89013174 C29.7886778,4.89013174 30.2160072,5.07539238 30.4283066,5.44863809 C30.6426539,5.82188379 30.7505102,6.39537446 30.7505102,7.16979119 L30.7505102,19.4889428 L40.7879713,19.4889428 L40.7879713,18.5755806 L32.849612,18.5755806 L32.849612,4.43311008 Z" id="Fill-7" fill="#222222"></path>
                        <polygon id="Fill-9" fill="#222222" points="9.64911018 0 7.29743353 0 5.94308623 3.5199522 6.8584994 3.5199522"></polygon>
                        <path d="M10.5850024,18.0055636 C9.98974491,18.3863014 9.16717006,18.5756487 8.11591257,18.5756487 L4.11362515,18.5756487 L4.11362515,12.1896054 L10.2873737,12.1896054 L10.2873737,11.2762432 L4.11362515,11.2762432 L4.11362515,5.34449709 L8.36712216,5.34449709 C10.2723557,5.34449709 11.2253138,6.22107961 11.2253138,7.96947692 L11.682679,7.96947692 L11.682679,6.2578593 L11.682679,5.18103181 L11.682679,4.43862704 L11.682679,4.43317819 L11.2253138,4.43317819 L11.2253138,4.43862704 L9.78154132,4.43862704 C9.76515808,4.43862704 9.75491856,4.43317819 9.73853533,4.43317819 L6.82634731e-05,4.43317819 L6.82634731e-05,4.88951875 L0.456068263,4.88951875 C1.09569701,4.88951875 1.52370898,5.07546049 1.73600838,5.4487062 C1.94967305,5.8219519 2.05752934,6.39544257 2.05752934,7.1698593 L2.05752934,19.4890109 L9.94469102,19.4890109 C10.813685,19.4890109 11.3850503,19.108273 11.6587868,18.3488406 L12.4602,16.1808824 L12.0028347,16.0671379 C11.6512778,16.9791379 11.178212,17.626869 10.5850024,18.0055636" id="Fill-11" fill="#222222"></path>
                        <path d="M62.0568216,18.1330665 L56.1199473,3.97629276 L55.4161509,3.97629276 L54.9499114,3.97629276 L53.6931808,3.97629276 L52.7074563,3.97629276 L52.7074563,4.4312711 C53.3327497,4.49257058 53.8126419,4.68736669 54.1471329,5.01429724 C54.4823066,5.34122778 54.8393246,5.94604929 55.2209174,6.82808066 L61.3591689,21.5542584 L61.6213006,21.5542584 L68.980103,4.39585362 L67.8824263,4.39585362 C66.0679832,8.74539208 62.0568216,18.1330665 62.0568216,18.1330665" id="Fill-13" fill="#222222"></path>
                        <path d="M97.5311641,12.9875883 C97.5311641,14.3709132 97.3857629,15.4824771 97.0956431,16.3181933 C96.8075713,17.1552717 96.3235832,17.7771208 95.6443617,18.1891895 C94.967188,18.599896 94.0483617,18.8035465 92.8892479,18.8035465 C91.4413796,18.8035465 90.4051401,18.3710447 89.7798467,17.5039976 C89.1545533,16.6376317 88.8419066,15.3598781 88.8419066,13.6727803 L88.8419066,9.85041733 L88.8419066,7.16958686 L88.8419066,4.43290575 L88.7176671,4.43290575 L87.6158946,4.43290575 L86.7864934,4.43290575 L84.7283497,4.43290575 L84.7283497,4.88992741 L85.1843497,4.88992741 C85.8239784,4.88992741 86.2519904,5.07518805 86.4642898,5.44843376 C86.6779545,5.82167946 86.7864934,6.39517013 86.7864934,7.16958686 L86.7864934,12.9875883 C86.7864934,14.5398273 86.9646611,15.8019155 87.321679,16.7745338 C87.6814275,17.7478333 88.2855593,18.4807026 89.1395353,18.9765473 C89.9935114,19.4703486 91.1533078,19.7169087 92.6155114,19.7169087 C94.1391521,19.7169087 95.324206,19.4737541 96.1713557,18.987445 C97.0157749,18.5011358 97.6076192,17.7737153 97.9421102,16.807908 C98.2772838,15.8427818 98.4445293,14.5691149 98.4445293,12.9875883 L98.4445293,4.43290575 L97.5311641,4.43290575 L97.5311641,12.9875883 Z" id="Fill-15" fill="#222222"></path>
                        <path d="M104.441475,11.5043453 L104.441475,5.45953577 C105.051751,5.30764929 106.936505,5.33557461 107.699691,5.58417804 C108.274469,5.771482 108.728422,6.18559403 109.116841,6.67939537 C109.505943,7.17524003 109.701176,7.79300254 109.701176,8.53949395 C109.701176,9.2396702 109.505943,9.83155071 109.116841,10.3178599 C108.728422,10.8041691 108.256038,11.1624305 107.699691,11.3912819 C107.143344,11.6194521 105.051751,11.6569129 104.441475,11.5043453 M112.159344,18.3099495 C110.359919,16.3960436 108.328398,12.4177075 108.328398,12.4177075 C110.767451,11.8551146 111.985954,10.5610145 111.985954,8.53949395 C111.985954,6.94298312 111.396158,5.85866348 110.2152,5.28925945 C109.033559,4.71917431 107.72017,4.43311008 106.270254,4.43311008 L100.327919,4.43311008 L100.327919,4.89013174 L100.783236,4.89013174 C101.423547,4.89013174 101.851559,5.07539238 102.063859,5.44863809 C102.277523,5.82188379 102.38538,6.39537446 102.38538,7.16979119 L102.38538,19.4889428 L104.441475,19.4889428 L104.441475,12.530771 L106.162398,12.530771 L110.330565,19.4889428 L110.895787,19.4889428 L111.429607,19.4889428 L111.997559,19.4889428 L113.816781,19.4889428 L113.816781,19.0319211 C113.221523,18.972665 112.558685,18.7349592 112.159344,18.3099495" id="Fill-17" fill="#222222"></path>
                        <polygon id="Fill-19" fill="#222222" points="36.1393653 29.5039833 35.8062395 28.3890139 34.8833174 28.3890139 35.7509461 29.5039833"></polygon>
                        <g id="Group-23" transform="translate(33.449102, 29.969655)">
                            <mask id="mask-2" fill="white">
                                <use xlink:href="#path-1"></use>
                            </mask>
                            <g id="Clip-22"></g>
                            <path d="M1.44472814,2.15099866 C1.44472814,1.82202479 1.48773413,1.52370067 1.57579401,1.25943181 C1.66180599,0.995162957 1.7839976,0.78606363 1.93963832,0.633496042 C2.09527904,0.48297177 2.2693509,0.406006871 2.46321916,0.406006871 C2.80658443,0.406006871 3.06257246,0.555168932 3.2305006,0.852130844 C3.39979401,1.15045497 3.48307545,1.58227573 3.48307545,2.15099866 L1.44472814,2.15099866 Z M4.4059976,2.15099866 C4.4059976,1.45899567 4.24626108,0.931820164 3.92542275,0.566066617 C3.60526707,0.20167528 3.11786587,0.0184579537 2.46321916,0.0184579537 C2.06865629,0.0184579537 1.72392575,0.124710381 1.42902754,0.333809709 C1.13481198,0.544271247 0.91022515,0.830335474 0.754584431,1.19132128 C0.598943713,1.5529882 0.521805988,1.95415922 0.521805988,2.39415325 C0.521805988,2.83959612 0.598943713,3.24076714 0.754584431,3.59902853 C0.91022515,3.95933323 1.13959042,4.24335414 1.44472814,4.45245347 C1.7485006,4.66291501 2.12121916,4.76780523 2.56015329,4.76780523 C2.94242874,4.76780523 3.27691976,4.68607259 3.56157844,4.52465063 C3.84691976,4.36322868 4.0953988,4.10508977 4.30906347,3.75023391 L4.11519521,3.60515848 C3.93293174,3.86397849 3.7376982,4.0574124 3.52812934,4.1868224 C3.31719521,4.31555131 3.05984192,4.38025631 2.75606946,4.38025631 C2.34785389,4.38025631 2.02701557,4.20929888 1.79287186,3.86670291 C1.56009341,3.52410695 1.44472814,3.0813885 1.44472814,2.53854757 L4.38756647,2.53854757 L4.4059976,2.15099866 Z" id="Fill-21" fill="#222222" mask="url(#mask-2)"></path>
                        </g>
                        <g id="Group-26" transform="translate(47.784431, 29.969655)">
                            <mask id="mask-4" fill="white">
                                <use xlink:href="#path-3"></use>
                            </mask>
                            <g id="Clip-25"></g>
                            <path d="M1.05753772,2.15099866 C1.05753772,1.82202479 1.10054371,1.52370067 1.18860359,1.25943181 C1.27461557,0.995162957 1.39680719,0.78606363 1.5524479,0.633496042 C1.70808862,0.48297177 1.88216048,0.406006871 2.07602874,0.406006871 C2.41939401,0.406006871 2.67538204,0.555168932 2.84331018,0.852130844 C3.01260359,1.15045497 3.09588503,1.58227573 3.09588503,2.15099866 L1.05753772,2.15099866 Z M4.01880719,2.15099866 C4.01880719,1.45899567 3.85907066,0.931820164 3.53823234,0.566066617 C3.21807665,0.20167528 2.73067545,0.0184579537 2.07602874,0.0184579537 C1.68146587,0.0184579537 1.33673533,0.124710381 1.04183713,0.333809709 C0.747621557,0.544271247 0.523034731,0.830335474 0.367394012,1.19132128 C0.211753293,1.5529882 0.134615569,1.95415922 0.134615569,2.39415325 C0.134615569,2.83959612 0.211753293,3.24076714 0.367394012,3.59902853 C0.523034731,3.95933323 0.7524,4.24335414 1.05753772,4.45245347 C1.36131018,4.66291501 1.73402874,4.76780523 2.17296287,4.76780523 C2.55523832,4.76780523 2.88972934,4.68607259 3.17438802,4.52465063 C3.45972934,4.36322868 3.70820838,4.10508977 3.92187305,3.75023391 L3.72800479,3.60515848 C3.54574132,3.86397849 3.35050778,4.0574124 3.14093892,4.1868224 C2.93000479,4.31555131 2.6726515,4.38025631 2.36887904,4.38025631 C1.96066347,4.38025631 1.63982515,4.20929888 1.40568144,3.86670291 C1.17290299,3.52410695 1.05753772,3.0813885 1.05753772,2.53854757 L4.00037605,2.53854757 L4.01880719,2.15099866 Z" id="Fill-24" fill="#222222" mask="url(#mask-4)"></path>
                        </g>
                        <g id="Group-29" transform="translate(68.263473, 29.969655)">
                            <mask id="mask-6" fill="white">
                                <use xlink:href="#path-5"></use>
                            </mask>
                            <g id="Clip-28"></g>
                            <path d="M0.995281437,2.15099866 C0.995281437,1.82202479 1.03828743,1.52370067 1.12634731,1.25943181 C1.21235928,0.995162957 1.3345509,0.78606363 1.49019162,0.633496042 C1.64583234,0.48297177 1.81990419,0.406006871 2.01377246,0.406006871 C2.35713772,0.406006871 2.61312575,0.555168932 2.78105389,0.852130844 C2.95034731,1.15045497 3.03362874,1.58227573 3.03362874,2.15099866 L0.995281437,2.15099866 Z M3.9565509,2.15099866 C3.9565509,1.45899567 3.79681437,0.931820164 3.47597605,0.566066617 C3.15582036,0.20167528 2.66841916,0.0184579537 2.01377246,0.0184579537 C1.61920958,0.0184579537 1.27447904,0.124710381 0.979580838,0.333809709 C0.685365269,0.544271247 0.460778443,0.830335474 0.305137725,1.19132128 C0.149497006,1.5529882 0.0723592814,1.95415922 0.0723592814,2.39415325 C0.0723592814,2.83959612 0.149497006,3.24076714 0.305137725,3.59902853 C0.460778443,3.95933323 0.690143713,4.24335414 0.995281437,4.45245347 C1.29905389,4.66291501 1.67177246,4.76780523 2.11070659,4.76780523 C2.49298204,4.76780523 2.82747305,4.68607259 3.11213174,4.52465063 C3.39747305,4.36322868 3.64526946,4.10508977 3.85961677,3.75023391 L3.6657485,3.60515848 C3.48348503,3.86397849 3.2882515,4.0574124 3.07868263,4.1868224 C2.8677485,4.31555131 2.61039521,4.38025631 2.30662275,4.38025631 C1.89840719,4.38025631 1.57756886,4.20929888 1.34342515,3.86670291 C1.11064671,3.52410695 0.995281437,3.0813885 0.995281437,2.53854757 L3.93811976,2.53854757 L3.9565509,2.15099866 Z" id="Fill-27" fill="#222222" mask="url(#mask-6)"></path>
                        </g>
                        <path d="M84.3979545,31.0152878 C84.2313916,31.2489069 84.0327449,31.4178211 83.7999665,31.5240735 C83.567188,31.6316881 83.3473796,31.6841332 83.139176,31.6841332 C82.9125413,31.6841332 82.6708886,31.6521213 82.4114874,31.5874163 L82.4114874,28.6797777 C82.6708886,28.6150727 82.9125413,28.5830608 83.139176,28.5830608 C83.3473796,28.5830608 83.567188,28.6368681 83.7999665,28.7431205 C84.0327449,28.8507352 84.2313916,29.0196493 84.3979545,29.2519062 C84.5631521,29.4841631 84.6443856,29.7790817 84.6443856,30.1346187 C84.6443856,30.4894745 84.5631521,30.7830309 84.3979545,31.0152878 M84.8676072,28.6416358 C84.3699665,28.377367 83.8095234,28.2445515 83.1883257,28.2445515 L80.6625772,28.2445515 L80.6625772,28.4386665 L80.8571281,28.4386665 C81.1281341,28.4386665 81.309715,28.5169936 81.401188,28.67501 C81.4919784,28.8337075 81.5363497,29.0782243 81.5363497,29.4071982 L81.5363497,34.6408114 L82.4114874,34.6408114 L82.4114874,32.0240048 L83.4798108,32.0240048 C83.7446731,32.0240048 84.0375234,31.9790518 84.357679,31.8884648 C84.6785174,31.7978778 84.9679545,31.6167038 85.228721,31.3456239 C85.4874395,31.0738629 85.6171401,30.686314 85.6171401,30.182296 C85.6171401,29.4194581 85.3672958,28.9059047 84.8676072,28.6416358" id="Fill-30" fill="#222222"></path>
                        <path d="M91.6863772,33.7196164 C91.571012,33.9007904 91.4413114,34.0424603 91.2979581,34.1473506 C91.1566527,34.2501975 90.9778024,34.3005993 90.7648204,34.3005993 C90.5047365,34.3005993 90.286976,34.2222721 90.1088084,34.0642557 C89.9299581,33.9055582 89.8418982,33.678069 89.8418982,33.3811071 C89.8418982,33.089594 89.9804731,32.8552938 90.2596707,32.6775253 C90.5368204,32.5004379 90.9156826,32.4112131 91.3948922,32.4112131 L91.6863772,32.4112131 L91.6863772,33.7196164 Z M92.1041497,30.4094447 C91.8003772,30.1295104 91.386018,29.9885216 90.8617545,29.9885216 C90.5443293,29.9885216 90.2501138,30.0157658 89.9818383,30.0716164 C89.7142455,30.126786 89.5217425,30.211243 89.4043293,30.327712 C89.2951078,30.43737 89.225479,30.5558823 89.2009042,30.6818868 C89.1749641,30.8078913 89.1606287,30.9802109 89.1606287,31.1995268 L89.5981976,31.1995268 C89.6691916,30.8971161 89.7927485,30.683249 89.9681856,30.5599689 C90.1422575,30.43737 90.3750359,30.3753894 90.6678862,30.3753894 C90.9975988,30.3753894 91.2501737,30.4925395 91.4242455,30.7247964 C91.6003653,30.9584155 91.6863772,31.3902363 91.6863772,32.0236642 L91.3948922,32.0236642 C90.6569641,32.0236642 90.061024,32.1265111 89.602976,32.3342482 C89.146976,32.5406232 88.918976,32.8893491 88.918976,33.3811071 C88.918976,33.710081 88.9947485,33.9750309 89.146976,34.1745948 C89.2992036,34.3762019 89.4814671,34.5192341 89.6958144,34.6064155 C89.909479,34.6942781 90.1190479,34.7371878 90.3272515,34.7371878 C90.6631078,34.7371878 90.9450359,34.6854237 91.1716707,34.5818957 C91.3983054,34.4790488 91.571012,34.3530444 91.6863772,34.2038823 L91.7355269,34.2038823 L92.0761617,34.6404708 L92.561515,34.6404708 L92.561515,32.0236642 C92.561515,31.2288143 92.4092874,30.6907412 92.1041497,30.4094447 Z" id="Fill-32" fill="#222222"></path>
                        <g id="Group-36" transform="translate(107.856287, 29.969655)">
                            <mask id="mask-8" fill="white">
                                <use xlink:href="#path-7"></use>
                            </mask>
                            <g id="Clip-35"></g>
                            <path d="M0.477844311,4.38032442 C0.368622754,4.26930426 0.300359281,4.1467053 0.274419162,4.00639761 C0.248479042,3.86813323 0.236191617,3.65290396 0.236191617,3.3627531 L0.43005988,3.3627531 C0.488766467,3.68559701 0.628706587,3.93624376 0.852610778,4.11401225 C1.07583234,4.29109963 1.38847904,4.38032442 1.78918563,4.38032442 C2.14688623,4.38032442 2.41311377,4.31902494 2.59196407,4.19574488 C2.7694491,4.07314593 2.85819162,3.90831845 2.85819162,3.70262465 C2.85819162,3.51463958 2.78924551,3.35321763 2.64862275,3.21631546 C2.5100479,3.08145661 2.28819162,2.9520466 1.9851018,2.82876654 L1.40076647,2.58765527 C1.01234731,2.43236326 0.72154491,2.25118925 0.526994012,2.04481434 C0.333125749,1.83707722 0.236191617,1.58234384 0.236191617,1.27925198 C0.236191617,0.884210904 0.385688623,0.577032412 0.682634731,0.353629873 C0.980263473,0.130908439 1.36526946,0.0185260642 1.83833533,0.0185260642 C2.55032335,0.0185260642 3.03567665,0.147936072 3.29644311,0.406074981 C3.40566467,0.51641404 3.47324551,0.6396941 3.49918563,0.775234055 C3.52580838,0.910092905 3.53809581,1.1273655 3.53809581,1.4236463 L3.34422754,1.4236463 C3.29166467,1.10080239 3.15582036,0.850155639 2.93532934,0.673749365 C2.71552096,0.495299776 2.41447904,0.406074981 2.03288623,0.406074981 C1.7277485,0.406074981 1.49019162,0.469417774 1.3188503,0.595422255 C1.14682635,0.721426736 1.06149701,0.884210904 1.06149701,1.08581807 C1.06149701,1.42092188 1.3208982,1.69608842 1.83833533,1.90791217 L2.42062275,2.15106677 C2.86160479,2.33224078 3.18176048,2.52431247 3.38245509,2.72728185 C3.58451497,2.93025123 3.68417964,3.19179567 3.68417964,3.50850963 C3.68417964,3.9021885 3.52580838,4.21141031 3.20838323,4.43413174 C2.89095808,4.65685317 2.48274251,4.76787334 1.9851018,4.76787334 C1.23898204,4.76787334 0.737928144,4.63846333 0.477844311,4.38032442" id="Fill-34" fill="#222222" mask="url(#mask-8)"></path>
                        </g>
                        <path d="M4.02522395,34.2531262 L4.02522395,29.407062 C4.02522395,29.342357 4.01976287,29.2960418 4.01771497,29.2381479 L4.01771497,28.2450963 L3.15008623,28.2450963 L2.27631377,28.2450963 L2.27631377,28.4385302 L2.47018204,28.4385302 C2.74187066,28.4385302 2.9234515,28.5168574 3.01424192,28.6755549 C3.10503234,28.8335713 3.15008623,29.0780881 3.15008623,29.407062 L3.15008623,34.6290963 L3.15008623,34.6406751 L7.47184671,34.6406751 L7.47184671,34.2531262 L4.02522395,34.2531262 Z" id="Fill-37" fill="#222222"></path>
                        <path d="M13.7867641,30.0851023 L13.7867641,33.7875907 C13.4829916,34.1301867 13.1594228,34.300463 12.8160575,34.300463 C12.5109198,34.300463 12.2569796,34.1962539 12.0535545,33.9857924 C11.8501293,33.7766931 11.7484168,33.4456759 11.7484168,32.9920597 L11.7484168,32.9341658 L11.7484168,31.2491113 L11.7484168,30.0851023 L10.873279,30.0851023 L10.0964407,30.0851023 L10.0964407,30.2785362 L10.1933749,30.2785362 C10.4643808,30.2785362 10.6466443,30.3589066 10.7374347,30.5169231 C10.8282251,30.6756206 10.873279,30.9180941 10.873279,31.2491113 L10.873279,32.9341658 L10.873279,32.9920597 C10.873279,33.6397909 11.0268719,34.0913637 11.3354228,34.3501837 C11.6419257,34.6083226 12.0392192,34.7370515 12.5245725,34.7370515 C12.7962611,34.7370515 13.0406443,34.6914175 13.2584048,34.5974249 C13.4741174,34.5034324 13.6509198,34.3883256 13.7867641,34.2527857 L13.8359138,34.2527857 L14.1751832,34.6403346 L14.6619018,34.6403346 L14.6619018,30.0851023 L13.7867641,30.0851023 Z" id="Fill-39" fill="#222222"></path>
                        <path d="M24.6747198,30.3756618 C24.4282886,30.1175229 24.098576,29.9881129 23.6842168,29.9881129 C23.4063844,29.9881129 23.1353784,30.0480502 22.8732467,30.1679247 C22.6117976,30.2877993 22.3954024,30.4539889 22.2274743,30.6664938 C22.1107437,30.4158471 21.955103,30.2387597 21.7612347,30.1386372 C21.5666838,30.0391958 21.3339054,29.9881129 21.0615341,29.9881129 C20.7898455,29.9881129 20.5454623,30.0357903 20.3277018,30.1297828 C20.110624,30.2237754 19.9351868,30.3375199 19.7993425,30.4723788 L19.7993425,30.0848299 L18.9242048,30.0848299 L18.0504323,30.0848299 L18.0504323,30.2789449 L18.2443006,30.2789449 C18.5173545,30.2789449 18.6975701,30.3586342 18.7883605,30.5173317 C18.8791509,30.6753482 18.9242048,30.9185028 18.9242048,31.2488388 L18.9242048,32.9345745 L18.9242048,34.6407432 L19.7993425,34.6407432 L19.7993425,32.9345745 L19.7993425,30.9382548 C20.103115,30.5956588 20.4266838,30.4247014 20.7700491,30.4247014 C21.0287677,30.4247014 21.2233186,30.5261861 21.3523365,30.7291555 C21.4820371,30.9334871 21.5468874,31.2672287 21.5468874,31.7331047 L21.5468874,34.6407432 L22.4220251,34.6407432 L22.4220251,31.7331047 C22.4220251,31.3782488 22.4049593,31.1521219 22.3728754,31.0554049 C22.4698096,30.9001129 22.6193066,30.7557186 22.8193186,30.6229031 C23.0200132,30.4907686 23.2111509,30.4247014 23.3927317,30.4247014 C23.6514503,30.4247014 23.8460012,30.5261861 23.9750192,30.7291555 C24.1047198,30.9334871 24.1695701,31.2672287 24.1695701,31.7331047 L24.1695701,34.6407432 L25.0447078,34.6407432 L25.0447078,31.7331047 C25.0447078,31.0874169 24.9211509,30.6338007 24.6747198,30.3756618" id="Fill-41" fill="#222222"></path>
                        <path d="M29.6378838,29.5039833 C29.7737281,29.5039833 29.8829497,29.4658414 29.962818,29.3868332 C30.0447341,29.3105494 30.0850096,29.2042969 30.0850096,29.0673948 C30.0850096,28.8998429 30.0310814,28.7554485 29.9245904,28.6321685 C29.8180994,28.5095695 29.6904467,28.4475889 29.5409497,28.4475889 C29.4051054,28.4475889 29.2958838,28.4864119 29.2160156,28.5647391 C29.1340994,28.641704 29.093824,28.7472753 29.093824,28.8841774 C29.093824,29.0517294 29.1477521,29.1968048 29.2542431,29.3194037 C29.3607341,29.4426838 29.4883868,29.5039833 29.6378838,29.5039833" id="Fill-43" fill="#222222"></path>
                        <path d="M29.4113856,30.0851023 L29.4113856,30.0953189 C29.3629186,30.0925945 29.3226431,30.0851023 29.2680323,30.0851023 L28.3942599,30.0851023 L28.3942599,30.2785362 L28.5888108,30.2785362 C28.861182,30.2785362 29.0413976,30.3589066 29.132188,30.5169231 C29.2236611,30.6756206 29.2680323,30.9180941 29.2680323,31.2491113 L29.2680323,34.6403346 L29.4113856,34.6403346 L30.1431701,34.6403346 L30.1431701,31.2491113 L30.1431701,30.0851023 L29.4113856,30.0851023 Z" id="Fill-45" fill="#222222"></path>
                        <path d="M44.3918731,30.1342781 C44.2621725,30.0375612 44.0683042,29.9885216 43.8095856,29.9885216 C43.5447234,29.9885216 43.3133102,30.0402856 43.1146635,30.1438136 C42.917382,30.2466605 42.760376,30.372665 42.6443281,30.521827 L42.6443281,30.0852385 L41.7691904,30.0852385 L40.9923521,30.0852385 L40.9923521,30.2786724 L41.0899689,30.2786724 C41.3623401,30.2786724 41.5425557,30.3590429 41.6340287,30.5170593 C41.7248192,30.6757568 41.7691904,30.9182303 41.7691904,31.2492475 L41.7691904,34.6404708 L42.6443281,34.6404708 L42.6443281,31.0551325 C42.7412623,30.9059704 42.8709629,30.7874581 43.0327473,30.7016388 C43.1945317,30.6137763 43.3720168,30.5695044 43.565885,30.5695044 C43.7413222,30.5695044 43.8969629,30.5940242 44.0328072,30.6430638 C44.1686515,30.6907412 44.2717293,30.7643005 44.3440886,30.8616986 L44.7325078,30.5695044 C44.6150946,30.3631295 44.5031425,30.217373 44.3918731,30.1342781" id="Fill-47" fill="#222222"></path>
                        <path d="M99.3307257,30.1342781 C99.2010251,30.0375612 99.0071569,29.9885216 98.7484383,29.9885216 C98.4828934,29.9885216 98.2521629,30.0402856 98.0535162,30.1438136 C97.8562347,30.2466605 97.6992287,30.372665 97.5831808,30.521827 L97.5831808,30.0852385 L96.7080431,30.0852385 L95.9312048,30.0852385 L95.9312048,30.2786724 L96.0288216,30.2786724 C96.3011928,30.2786724 96.4814084,30.3590429 96.5721988,30.5170593 C96.6636719,30.6757568 96.7080431,30.9182303 96.7080431,31.2492475 L96.7080431,34.6404708 L97.5831808,34.6404708 L97.5831808,31.0551325 C97.680115,30.9059704 97.8098156,30.7874581 97.9716,30.7016388 C98.1333844,30.6137763 98.3108695,30.5695044 98.5047377,30.5695044 C98.6801749,30.5695044 98.8358156,30.5940242 98.9716599,30.6430638 C99.1075042,30.6907412 99.210582,30.7643005 99.2829413,30.8616986 L99.6713605,30.5695044 C99.5539473,30.3631295 99.4419952,30.217373 99.3307257,30.1342781" id="Fill-49" fill="#222222"></path>
                        <path d="M103.720681,29.5039833 C103.856526,29.5039833 103.965747,29.4658414 104.045616,29.3868332 C104.127532,29.3105494 104.167807,29.2042969 104.167807,29.0673948 C104.167807,28.8998429 104.113879,28.7554485 104.007388,28.6321685 C103.900897,28.5095695 103.773244,28.4475889 103.623747,28.4475889 C103.487903,28.4475889 103.378681,28.4864119 103.298813,28.5647391 C103.216897,28.641704 103.176622,28.7472753 103.176622,28.8841774 C103.176622,29.0517294 103.23055,29.1968048 103.337041,29.3194037 C103.443532,29.4426838 103.571184,29.5039833 103.720681,29.5039833" id="Fill-51" fill="#222222"></path>
                        <path d="M103.350898,30.0851023 L102.477126,30.0851023 L102.477126,30.2785362 L102.671677,30.2785362 C102.944048,30.2785362 103.124263,30.3589066 103.215054,30.5169231 C103.306527,30.6756206 103.350898,30.9180941 103.350898,31.2491113 L103.350898,34.6403346 L104.226036,34.6403346 L104.226036,31.2491113 L104.226036,30.0851023 L103.350898,30.0851023 Z" id="Fill-53" fill="#222222"></path>
                        <path d="M63.6052419,33.7687922 C63.4618886,33.9622261 63.3233138,34.1073016 63.1874695,34.2040185 C63.0523078,34.3007355 62.8502479,34.3497751 62.5853856,34.3497751 C62.2167629,34.3497751 61.9382479,34.1672388 61.7498407,33.8028475 C61.5621162,33.4364128 61.4679126,32.9569147 61.4679126,32.363672 C61.4679126,31.762256 61.5668946,31.2813957 61.764176,30.9183665 C61.9628228,30.5573807 62.2679605,30.3755256 62.6823198,30.3755256 C62.8181641,30.3755256 62.9581042,30.4020887 63.1000922,30.4538527 C63.2434455,30.5049356 63.4113737,30.5771328 63.6052419,30.6663576 L63.6052419,32.8002605 L63.6052419,33.7687922 Z M63.6052419,28.2450282 L62.7314695,28.2450282 L62.7314695,28.4384621 L62.9260204,28.4384621 C63.1970263,28.4384621 63.3786072,28.5167892 63.4693976,28.6754868 C63.5608707,28.8335032 63.6052419,29.07802 63.6052419,29.4069939 L63.6052419,30.2788087 C63.4175174,30.1895839 63.2291102,30.1173867 63.0413856,30.0663038 C62.8529784,30.0145398 62.6372659,29.9879767 62.3908347,29.9879767 C61.7887509,29.9879767 61.330703,30.2113792 61.016691,30.6568221 C60.7019964,31.1029461 60.5449904,31.671669 60.5449904,32.363672 C60.5449904,33.0536317 60.6958527,33.6230357 60.996212,34.0684786 C61.2986192,34.5146025 61.7300443,34.737324 62.2939006,34.737324 C62.6434096,34.737324 62.9130503,34.6896466 63.104188,34.5915674 C63.2953257,34.4941694 63.4618886,34.3654405 63.6052419,34.2040185 L63.6530263,34.2040185 L63.9936611,34.640607 L64.4790144,34.640607 L64.4790144,32.8002605 L64.4790144,29.4069939 L64.4790144,28.2450282 L63.6052419,28.2450282 Z" id="Fill-55" fill="#222222"></path>
                    </g>
                </g>
            </g>
        </g>
    </g>
</svg>